<svg xmlns="http://www.w3.org/2000/svg" viewBox="0 0 1788 1832">
  <path d="M 981.0 1487.5 L 797.0 1487.5 L 685.0 1478.5 L 586.0 1463.5 L 534.0 1449.5 L 509.0 1435.5 L 493.5 1410.0 L 495.5 1383.0 L 502.5 1362.0 L 419.0 1315.5 L 344.0 1259.5 L 273.5 1189.0 L 215.5 1110.0 L 175.5 1034.0 L 151.5 968.0 L 135.5 887.0 L 138.5 846.0 L 145.0 838.5 L 154.0 835.5 L 203.0 860.5 L 240.0 874.5 L 357.0 907.5 L 442.0 922.5 L 589.0 939.5 L 728.0 945.5 L 868.0 944.5 L 999.0 935.5 L 1116.0 919.5 L 1261.0 887.5 L 1382.0 843.5 L 1428.0 818.5 L 1474.0 784.5 L 1507.5 743.0 L 1517.5 718.0 L 1519.5 684.0 L 1507.5 649.0 L 1487.5 620.0 L 1457.0 590.5 L 1418.0 565.5 L 1383.0 548.5 L 1317.0 527.5 L 1316.0 522.5 L 1358.0 524.5 L 1440.0 541.5 L 1501.0 563.5 L 1545.0 587.5 L 1588.0 620.5 L 1616.5 654.0 L 1632.5 686.0 L 1640.5 719.0 L 1640.5 760.0 L 1629.5 793.0 L 1611.5 823.0 L 1574.0 860.5 L 1543.0 882.5 L 1491.0 911.5 L 1445.0 931.5 L 1353.0 961.5 L 1260.0 983.5 L 1035.5 1017.0 L 1102.0 1024.5 L 1221.0 1023.5 L 1302.0 1015.5 L 1400.0 995.5 L 1456.0 978.5 L 1521.0 949.5 L 1586.0 907.5 L 1632.0 867.5 L 1624.5 931.0 L 1607.5 992.0 L 1577.5 1064.0 L 1544.5 1122.0 L 1477.5 1209.0 L 1407.0 1275.5 L 1321.0 1336.5 L 1248.5 1374.0 L 1256.5 1397.0 L 1257.5 1420.0 L 1251.5 1435.0 L 1239.0 1448.5 L 1215.0 1458.5 L 1149.0 1471.5 L 1093.0 1479.5 L 981.0 1487.5 Z" fill="#FE8D03"/>
  <path d="M 843.0 893.5 L 688.0 892.5 L 583.0 886.5 L 413.0 866.5 L 313.0 846.5 L 251.0 826.5 L 235.0 816.5 L 223.5 799.0 L 223.5 764.0 L 240.5 732.0 L 257.0 714.5 L 277.0 701.5 L 313.0 691.5 L 349.0 691.5 L 377.0 698.5 L 383.0 696.5 L 386.5 690.0 L 387.5 656.0 L 399.5 627.0 L 426.0 594.5 L 447.0 580.5 L 467.0 572.5 L 490.0 568.5 L 518.0 568.5 L 563.0 576.5 L 567.5 572.0 L 579.5 536.0 L 600.5 507.0 L 621.0 490.5 L 654.0 477.5 L 715.0 473.5 L 753.0 480.5 L 783.0 494.5 L 791.0 494.5 L 806.5 463.0 L 836.0 428.5 L 873.0 409.5 L 910.0 402.5 L 964.0 405.5 L 988.0 413.5 L 1014.0 428.5 L 1041.5 459.0 L 1054.5 484.0 L 1059.5 502.0 L 1066.0 505.5 L 1092.0 491.5 L 1124.0 481.5 L 1176.0 481.5 L 1200.0 488.5 L 1240.0 513.5 L 1255.5 533.0 L 1269.5 566.0 L 1272.5 596.0 L 1276.0 602.5 L 1281.0 604.5 L 1311.0 593.5 L 1334.0 591.5 L 1374.0 596.5 L 1398.0 605.5 L 1428.0 625.5 L 1449.5 657.0 L 1455.5 674.0 L 1454.5 713.0 L 1447.5 733.0 L 1435.5 750.0 L 1388.0 787.5 L 1324.0 817.5 L 1220.0 850.5 L 1112.0 871.5 L 987.0 886.5 L 843.0 893.5 Z" fill="#FEE100"/>
  <path d="M 1085.0 718.5 L 1067.0 715.5 L 1047.5 704.0 L 1044.5 684.0 L 1045.5 674.0 L 1059.5 649.0 L 1088.0 623.5 L 1116.0 610.5 L 1140.0 609.5 L 1155.0 613.5 L 1164.0 618.5 L 1173.5 630.0 L 1175.5 653.0 L 1172.5 665.0 L 1163.5 681.0 L 1148.0 695.5 L 1124.0 709.5 L 1104.0 716.5 L 1085.0 718.5 Z" fill="#FE8D03"/>
  <path d="M 935.0 796.5 L 917.0 795.5 L 901.0 790.5 L 878.0 777.5 L 864.5 764.0 L 855.5 746.0 L 855.5 732.0 L 859.5 721.0 L 869.0 711.5 L 891.0 701.5 L 919.0 701.5 L 932.0 705.5 L 951.0 715.5 L 969.5 732.0 L 977.5 745.0 L 981.5 762.0 L 976.5 778.0 L 971.0 784.5 L 958.0 792.5 L 935.0 796.5 Z" fill="#FE8D03"/>
  <path d="M 620.0 779.5 L 595.0 779.5 L 581.0 776.5 L 565.0 769.5 L 548.5 757.0 L 538.5 741.0 L 537.5 722.0 L 543.5 709.0 L 552.0 699.5 L 560.0 694.5 L 569.0 692.5 L 603.0 691.5 L 625.0 697.5 L 640.5 711.0 L 651.5 728.0 L 653.5 738.0 L 652.5 757.0 L 641.0 771.5 L 620.0 779.5 Z" fill="#FE8D03"/>
  <path d="M 741.0 676.5 L 721.0 674.5 L 706.0 667.5 L 689.0 653.5 L 678.5 640.0 L 671.5 623.0 L 670.5 601.0 L 677.5 585.0 L 688.0 576.5 L 701.0 572.5 L 717.0 572.5 L 727.0 575.5 L 743.0 585.5 L 763.5 611.0 L 771.5 630.0 L 771.5 660.0 L 763.0 669.5 L 741.0 676.5 Z" fill="#FE8D03"/>
  <path d="M 915.0 618.5 L 895.0 616.5 L 881.5 606.0 L 876.5 592.0 L 875.5 567.0 L 881.5 543.0 L 896.5 516.0 L 913.0 502.5 L 935.0 502.5 L 947.0 507.5 L 955.5 522.0 L 959.5 541.0 L 959.5 572.0 L 956.5 585.0 L 947.5 601.0 L 935.0 612.5 L 915.0 618.5 Z" fill="#FE8D03"/>
  <path d="M 1277.0 778.5 L 1258.0 776.5 L 1244.0 770.5 L 1239.5 766.0 L 1236.5 753.0 L 1240.5 731.0 L 1258.5 704.0 L 1281.0 686.5 L 1293.0 682.5 L 1319.0 684.5 L 1327.5 691.0 L 1332.5 702.0 L 1332.5 717.0 L 1326.5 735.0 L 1316.5 751.0 L 1305.0 763.5 L 1292.0 773.5 L 1277.0 778.5 Z" fill="#FE8D03"/>
</svg>
